<svg xmlns="http://www.w3.org/2000/svg" version="1.1" xmlns:xlink="http://www.w3.org/1999/xlink" xmlns:svgjs="http://svgjs.dev/svgjs" width="1000" height="1125" viewBox="0 0 1000 1125"><g transform="matrix(1,0,0,1,0.0011008540699322111,0)"><svg viewBox="0 0 320 360" data-background-color="#ffffff" preserveAspectRatio="xMidYMid meet" height="1125" width="1000" xmlns="http://www.w3.org/2000/svg" xmlns:xlink="http://www.w3.org/1999/xlink"><g id="tight-bounds" transform="matrix(1,0,0,1,0.00010353528136874957,0)"><svg viewBox="0 0 320 360" height="360" width="320"><g><svg></svg></g><g><svg viewBox="0 0 320 360" height="360" width="320"><g><path xmlns="http://www.w3.org/2000/svg" d="M307.925 179.999l6.575-11.387c11.322-19.607 4.604-44.679-15.003-56.001l-11.387-6.575v-13.151c0-22.639-18.354-40.994-40.994-40.994h-13.151l-6.575-11.387c-11.322-19.607-36.393-26.325-56.001-15.003l-11.39 6.572-11.387-6.576c-19.607-11.318-44.679-4.6-56.001 15.007l-6.575 11.387h-13.151c-22.639 0-40.994 18.354-40.994 40.994v13.151l-11.387 6.575c-19.607 11.322-26.325 36.393-15.003 56.001l6.572 11.387-6.576 11.387c-11.318 19.607-4.6 44.679 15.007 56l11.387 6.576v13.15c0 22.639 18.354 40.994 40.994 40.994h13.151l6.575 11.387c11.322 19.607 36.393 26.325 56.001 15.003l11.387-6.571 11.387 6.575c19.607 11.322 44.679 4.604 56-15.003l6.576-11.387h13.15c22.639 0 40.994-18.354 40.994-40.994v-13.151l11.387-6.575c19.607-11.322 26.325-36.393 15.003-56.001zM297.702 115.716c8.655 4.996 14.842 13.062 17.428 22.713 2.586 9.65 1.261 19.734-3.735 28.384l-5.538 9.596-17.747-30.74v-35.494zM251.155 271.155l-57.791 33.365h-66.731l-57.791-33.365-33.365-57.791v-66.731l33.365-57.791 57.791-33.365h66.731l57.791 33.365 33.365 57.791v66.731zM284.517 220.539v31.351l-27.151 15.676zM247.566 277.366l-15.676 27.151h-31.351zM187.15 308.106l-27.151 15.676-27.151-15.676zM119.459 304.517h-31.352l-15.676-27.151zM62.632 267.566l-27.151-15.676v-31.351zM31.891 207.15l-15.675-27.151 15.675-27.151zM35.481 139.459v-31.352l27.151-15.676zM72.431 82.632l15.676-27.151h31.352zM132.848 51.891l27.151-15.675 27.151 15.675zM200.539 55.481h31.351l15.676 27.151zM257.366 92.431l27.151 15.676v31.352zM288.106 152.848l15.676 27.151-15.676 27.151zM247.112 55.481c9.992 0 19.384 3.889 26.452 10.956 7.063 7.063 10.956 16.46 10.957 26.452v11.079l-30.741-17.747-17.747-30.74zM173.18 28.606c8.655-4.996 18.735-6.322 28.385-3.735 9.65 2.586 17.716 8.777 22.712 17.428l5.538 9.596h-35.494l-30.741-17.747zM95.716 42.295c4.996-8.655 13.062-14.842 22.713-17.428 9.65-2.586 19.734-1.261 28.384 3.736l9.596 5.537-30.74 17.747h-35.494zM35.481 92.885c0-9.992 3.889-19.384 10.956-26.452 7.063-7.063 16.46-10.956 26.452-10.956h11.079l-17.747 30.74-30.74 17.747zM8.606 166.817c-4.996-8.655-6.322-18.735-3.735-28.385 2.586-9.65 8.777-17.716 17.428-22.712l9.596-5.538v35.495l-17.747 30.74zM22.295 244.281c-8.655-4.996-14.842-13.062-17.428-22.712-2.586-9.65-1.261-19.734 3.736-28.385l5.537-9.596 17.747 30.74v35.495zM72.885 304.517c-9.992 0-19.384-3.889-26.452-10.957-7.063-7.063-10.956-16.46-10.956-26.451v-11.08l30.74 17.747 17.747 30.741zM146.817 331.391c-8.655 4.996-18.735 6.322-28.385 3.735-9.65-2.586-17.716-8.777-22.712-17.428l-5.538-9.596h35.495l30.74 17.747zM224.281 317.702c-4.996 8.655-13.062 14.842-22.712 17.428-9.65 2.586-19.734 1.261-28.385-3.735l-9.596-5.538 30.74-17.747h35.495zM284.517 267.112c0 9.992-3.889 19.384-10.957 26.452-7.063 7.063-16.46 10.956-26.451 10.957h-11.08l17.747-30.741 30.741-17.747zM315.13 221.565c-2.586 9.65-8.777 17.716-17.428 22.712l-9.596 5.538v-35.494l17.747-30.741 5.538 9.596c4.996 8.658 6.326 18.739 3.739 28.389z" fill="#1b4571" fill-rule="nonzero" stroke="none" stroke-width="1" stroke-linecap="butt" stroke-linejoin="miter" stroke-miterlimit="10" stroke-dasharray="" stroke-dashoffset="0" font-family="none" font-weight="none" font-size="none" text-anchor="none" style="mix-blend-mode: normal" data-fill-palette-color="tertiary"></path></g><g transform="matrix(1,0,0,1,106.6099367478182,90)"><svg viewBox="0 0 106.78012650436361 180" height="180" width="106.78012650436361"><g><svg viewBox="0 0 106.78012650436361 180" height="180" width="106.78012650436361"><g><svg viewBox="0 0 237.31199999999998 400.03848467302936" height="180" width="106.78012650436361"><g transform="matrix(1,0,0,1,22.65599999999999,296.7972598784065)"><svg viewBox="0 0 192 103.24122479462285" height="103.24122479462285" width="192"><g id="textblocktransform"><svg viewBox="0 0 192 103.24122479462285" height="103.24122479462285" width="192" id="textblock"><g><svg viewBox="0 0 192 103.24122479462285" height="103.24122479462285" width="192"><g transform="matrix(1,0,0,1,0,0)"><svg width="192" viewBox="4.25 -35.70000076293945 66.94999694824219 36" height="103.24122479462285" data-palette-color="#bf2051"><path d="M30.15 0L8.75-27.2 8.75 0 4.25 0 4.25-35.5 8.05-35.5 29.75-7.75 29.75-35.45 34.25-35.45 34.25 0 30.15 0ZM40.45-18L40.45-18Q40.45-21.25 41.57-24.38 42.7-27.5 44.87-30.08 47.05-32.65 50.2-34.18 53.35-35.7 57.35-35.7L57.35-35.7Q62.1-35.7 65.5-33.52 68.9-31.35 70.55-27.95L70.55-27.95 67-25.65Q65.95-27.9 64.32-29.23 62.7-30.55 60.82-31.1 58.95-31.65 57.15-31.65L57.15-31.65Q54.2-31.65 51.92-30.45 49.65-29.25 48.1-27.25 46.55-25.25 45.77-22.78 45-20.3 45-17.8L45-17.8Q45-15.05 45.92-12.5 46.85-9.95 48.5-8 50.15-6.05 52.4-4.9 54.65-3.75 57.3-3.75L57.3-3.75Q59.15-3.75 61.1-4.4 63.05-5.05 64.75-6.43 66.45-7.8 67.45-10L67.45-10 71.2-7.95Q70.1-5.3 67.8-3.45 65.5-1.6 62.67-0.65 59.85 0.3 57.1 0.3L57.1 0.3Q53.45 0.3 50.4-1.28 47.35-2.85 45.12-5.48 42.9-8.1 41.67-11.38 40.45-14.65 40.45-18Z" opacity="1" transform="matrix(1,0,0,1,0,0)" fill="#bf2051" class="wordmark-text-0" data-fill-palette-color="primary" id="text-0"></path></svg></g></svg></g></svg></g></svg></g><g><svg viewBox="0 0 237.31199999999998 272.4244844937911" height="272.4244844937911" width="237.31199999999998"><g><svg xmlns="http://www.w3.org/2000/svg" xmlns:xlink="http://www.w3.org/1999/xlink" version="1.1" x="0" y="0" viewBox="10.100000381469727 5.199999809265137 78.4000015258789 90" enable-background="new 0 0 100 100" xml:space="preserve" height="272.4244844937911" width="237.31199999999998" class="icon-icon-0" data-fill-palette-color="accent" id="icon-0"><polygon fill-rule="evenodd" clip-rule="evenodd" fill="#bf2051" points="88.5,28.2 68.4,59.9 68.5,22.3 " data-fill-palette-color="accent"></polygon><polygon fill-rule="evenodd" clip-rule="evenodd" fill="#bf2051" points="49.8,5.2 67.2,38.5 34.7,19.6 " data-fill-palette-color="accent"></polygon><polygon fill-rule="evenodd" clip-rule="evenodd" fill="#bf2051" points="67.8,38.3 67.8,22.3 60.8,24.5 " data-fill-palette-color="accent"></polygon><polygon fill-rule="evenodd" clip-rule="evenodd" fill="#bf2051" points="88.2,73.2 50.6,71.7 83.2,52.9 " data-fill-palette-color="accent"></polygon><polygon fill-rule="evenodd" clip-rule="evenodd" fill="#bf2051" points="69.1,60.3 82.8,52.3 77.4,47.4 " data-fill-palette-color="accent"></polygon><polygon fill-rule="evenodd" clip-rule="evenodd" fill="#bf2051" points="48.7,95.2 31.5,61.9 63.9,80.9 " data-fill-palette-color="accent"></polygon><polygon fill-rule="evenodd" clip-rule="evenodd" fill="#bf2051" points="50.5,72.2 64.2,80.2 65.8,73.1 " data-fill-palette-color="accent"></polygon><polygon fill-rule="evenodd" clip-rule="evenodd" fill="#bf2051" points="10.1,72 30.5,40.4 30.1,78 " data-fill-palette-color="accent"></polygon><polygon fill-rule="evenodd" clip-rule="evenodd" fill="#bf2051" points="30.9,62.1 30.8,78 37.8,75.8 " data-fill-palette-color="accent"></polygon><polygon fill-rule="evenodd" clip-rule="evenodd" fill="#bf2051" points="11,27 48.5,28.9 15.8,47.3 " data-fill-palette-color="accent"></polygon><polygon fill-rule="evenodd" clip-rule="evenodd" fill="#bf2051" points="30,40.1 16.1,47.9 21.5,52.9 " data-fill-palette-color="accent"></polygon><polygon fill-rule="evenodd" clip-rule="evenodd" fill="#bf2051" points="48.2,28.3 34.5,20.2 32.9,27.4 " data-fill-palette-color="accent"></polygon></svg></g></svg></g><g></g></svg></g></svg></g></svg></g></svg></g><defs></defs></svg><rect width="320" height="360" fill="none" stroke="none" visibility="hidden"></rect></g></svg></g></svg>